<?xml version="1.0" encoding="UTF-8"?>
<svg id="Layer_1" data-name="Layer 1" xmlns="http://www.w3.org/2000/svg" width="800" height="797.7074" viewBox="0 0 800 797.7074">
  <path d="M443.005,797.7074c200.6893-21.4532,356.995-191.3232,356.995-397.7074C800,179.0861,620.9139,0,400,0S0,179.0861,0,400c0,205.6442,155.1859,375.0391,354.837,397.4745" fill="#fff"/>
  <path d="M800,400C800,179.0861,620.9139,0,400,0S0,179.0861,0,400c0,205.6442,155.1859,375.0391,354.837,397.4745,0,0,64.7213-94.9952,69.663-131.9745,5.4631-40.8806-39.6682-119.9195-36-161,1.2742-14.2698,25.5181-35.8901,28-50,2.4662-14.0205-17-43-16.5-54.5.0307-.7065,30.761,42.7866,30.5,59.5-.1943,12.4409-18.5519,33.5657-19,46-1.5376,42.6638,40.5311,122.4497,44,165,2.5965,31.8492-12.495,127.2074-12.495,127.2074,200.6893-21.4532,356.995-191.3232,356.995-397.7074Z"/>
</svg>