<?xml version="1.0" encoding="UTF-8"?>
<svg id="Layer_1" xmlns="http://www.w3.org/2000/svg" version="1.1" viewBox="0 0 1024 1024">
  <!-- Generator: Adobe Illustrator 29.7.1, SVG Export Plug-In . SVG Version: 2.1.1 Build 8)  -->
  <defs>
    <style>
      .st0 {
        fill: #fff;
      }
    </style>
  </defs>
  <path class="st0" d="M912.5,511.5c0-220.91-179.09-400-400-400S112.5,290.59,112.5,511.5c0,205.64,155.19,375.04,354.84,397.47,0,0,64.72-95,69.66-131.97,5.46-40.88-39.67-119.92-36-161,1.27-14.27,25.52-35.89,28-50,2.47-14.02-17-43-16.5-54.5.03-.71,30.76,42.79,30.5,59.5-.19,12.44-18.55,33.57-19,46-1.54,42.66,40.53,122.45,44,165,2.6,31.85-12.49,127.21-12.49,127.21,200.69-21.45,356.99-191.32,356.99-397.71Z"/>
</svg>